<svg width="128" height="128" viewBox="0 0 128 128" fill="none" xmlns="http://www.w3.org/2000/svg">
<path opacity="0.72" d="M88.1757 21L107.55 31.3871C116.322 36.952 114.216 50.1632 107.551 60.9156L88.1172 50.4913C94.8366 39.6255 96.8747 26.2337 88.1757 21Z" fill="#00CBFE"/>
<path opacity="0.88" d="M80.1393 75.5087L60.7108 65.1587L88.1175 50.4913L107.551 60.9155L80.1393 75.5087Z" fill="#00CBFE"/>
<path d="M80.1663 45.9892L60.7378 35.6523L60.6837 94.6631L80.1122 105L80.1663 45.9892Z" fill="#00CBFE"/>
<path opacity="0.8" d="M80.1664 45.9892L60.7379 35.6523L88.176 21L107.55 31.3871L80.1664 45.9892Z" fill="#00CBFE"/>
<path opacity="0.72" d="M39.25 53.4913L19.816 63.9155C11.0445 69.4804 13.1497 82.6796 19.8149 93.433L39.2792 82.9897C32.5598 72.1239 30.551 58.725 39.25 53.4913Z" fill="#0049FC"/>
<path opacity="0.88" d="M47.2552 108L66.6837 97.6631L39.2792 82.9897L19.815 93.433L47.2552 108Z" fill="#0049FC"/>
<path d="M47.2011 48.9892L66.6296 38.6523L66.6837 97.6631L47.2552 108L47.2011 48.9892Z" fill="#0049FC"/>
<path opacity="0.8" d="M47.2012 48.9892L66.6297 38.6523L39.1917 24L19.8173 34.3871L47.2012 48.9892Z" fill="#0049FC"/>
</svg>
